<svg width="522" height="85" viewBox="0 0 522 85" fill="none" xmlns="http://www.w3.org/2000/svg">
<rect x="2.05701" y="2.05701" width="517.886" height="80.9204" stroke="black" stroke-width="3"/>
<rect x="273.987" y="3.55701" width="244.456" height="77.9204" fill="#ADC3A0"/>
<rect x="3.55701" y="3.55701" width="270.43" height="77.9204" fill="#1E3917"/>
<path d="M37.7961 42.7772C39.5073 43.0828 40.9588 43.9842 42.1505 45.4815C43.3422 46.9788 43.9381 48.6747 43.9381 50.5693C43.9381 52.1888 43.5103 53.6555 42.6547 54.9695C41.8296 56.2529 40.6226 57.2765 39.0337 58.0404C37.4447 58.7738 35.596 59.1405 33.4876 59.1405H20.7453V27.2848H32.8917C35.0613 27.2848 36.9252 27.6515 38.4836 28.3848C40.042 29.1182 41.2185 30.1113 42.013 31.3642C42.8075 32.5864 43.2047 33.9615 43.2047 35.4894C43.2047 37.3228 42.7158 38.8506 41.738 40.0729C40.7601 41.2952 39.4462 42.1966 37.7961 42.7772ZM25.9705 40.6688H32.4333C34.1445 40.6688 35.4738 40.2868 36.421 39.5229C37.3989 38.7284 37.8878 37.5978 37.8878 36.1311C37.8878 34.6949 37.3989 33.5795 36.421 32.7851C35.4738 31.96 34.1445 31.5475 32.4333 31.5475H25.9705V40.6688ZM33.0292 54.8778C34.8015 54.8778 36.1919 54.45 37.2002 53.5944C38.2086 52.7388 38.7128 51.5471 38.7128 50.0192C38.7128 48.4608 38.1781 47.2233 37.1086 46.3065C36.0391 45.3898 34.6182 44.9315 32.8459 44.9315H25.9705V54.8778H33.0292ZM52.2748 30.5391C51.3275 30.5391 50.533 30.2183 49.8913 29.5766C49.2496 28.9349 48.9288 28.1404 48.9288 27.1931C48.9288 26.2459 49.2496 25.4514 49.8913 24.8097C50.533 24.168 51.3275 23.8471 52.2748 23.8471C53.1915 23.8471 53.9707 24.168 54.6124 24.8097C55.2541 25.4514 55.5749 26.2459 55.5749 27.1931C55.5749 28.1404 55.2541 28.9349 54.6124 29.5766C53.9707 30.2183 53.1915 30.5391 52.2748 30.5391ZM54.8416 33.8851V59.1405H49.6163V33.8851H54.8416ZM74.4441 33.4726C76.4303 33.4726 78.2027 33.8851 79.7611 34.7102C81.35 35.5352 82.5876 36.7575 83.4737 38.377C84.3599 39.9965 84.803 41.9522 84.803 44.2439V59.1405H79.6236V45.0232C79.6236 42.7619 79.0582 41.0355 77.9276 39.8437C76.797 38.6215 75.2539 38.0103 73.2982 38.0103C71.3426 38.0103 69.7842 38.6215 68.623 39.8437C67.4924 41.0355 66.9271 42.7619 66.9271 45.0232V59.1405H61.7019V33.8851H66.9271V36.7728C67.7827 35.7338 68.8675 34.9241 70.1814 34.3435C71.5259 33.7629 72.9468 33.4726 74.4441 33.4726ZM113.871 59.4614C111.732 59.4614 109.807 59.0947 108.096 58.3613C106.384 57.5974 105.04 56.5279 104.062 55.1528C103.084 53.7777 102.595 52.1735 102.595 50.3401H108.187C108.31 51.7151 108.844 52.8458 109.792 53.7319C110.769 54.6181 112.129 55.0611 113.871 55.0611C115.674 55.0611 117.079 54.6333 118.088 53.7777C119.096 52.8916 119.6 51.761 119.6 50.3859C119.6 49.3164 119.28 48.4455 118.638 47.7733C118.027 47.101 117.247 46.5816 116.3 46.2149C115.384 45.8482 114.1 45.451 112.45 45.0232C110.372 44.4731 108.676 43.9231 107.362 43.3731C106.079 42.7925 104.979 41.9063 104.062 40.7146C103.145 39.5229 102.687 37.9339 102.687 35.9477C102.687 34.1143 103.145 32.51 104.062 31.135C104.979 29.7599 106.262 28.7057 107.912 27.9723C109.562 27.239 111.472 26.8723 113.642 26.8723C116.728 26.8723 119.249 27.6515 121.205 29.2099C123.191 30.7377 124.291 32.8462 124.505 35.5352H118.73C118.638 34.374 118.088 33.3809 117.079 32.5559C116.071 31.7308 114.742 31.3183 113.092 31.3183C111.594 31.3183 110.372 31.7003 109.425 32.4642C108.478 33.2281 108.004 34.3282 108.004 35.7644C108.004 36.7422 108.294 37.552 108.875 38.1937C109.486 38.8048 110.25 39.2937 111.167 39.6604C112.083 40.0271 113.336 40.4243 114.925 40.8521C117.034 41.4327 118.745 42.0133 120.059 42.5939C121.403 43.1745 122.534 44.0759 123.451 45.2982C124.398 46.4899 124.871 48.0941 124.871 50.1109C124.871 51.7304 124.428 53.2583 123.542 54.6945C122.687 56.1306 121.419 57.2918 119.738 58.178C118.088 59.0336 116.132 59.4614 113.871 59.4614ZM137.133 38.1478V52.1277C137.133 53.0749 137.347 53.7625 137.775 54.1903C138.233 54.5875 138.997 54.7861 140.067 54.7861H143.275V59.1405H139.15C136.797 59.1405 134.994 58.5905 133.741 57.4904C132.489 56.3904 131.862 54.6028 131.862 52.1277V38.1478H128.883V33.8851H131.862V27.6056H137.133V33.8851H143.275V38.1478H137.133ZM146.349 46.3982C146.349 43.862 146.869 41.616 147.908 39.6604C148.977 37.7047 150.413 36.1922 152.216 35.1227C154.05 34.0226 156.067 33.4726 158.267 33.4726C160.253 33.4726 161.979 33.8698 163.446 34.6643C164.943 35.4282 166.135 36.3908 167.021 37.552V33.8851H172.292V59.1405H167.021V55.382C166.135 56.5737 164.928 57.5668 163.4 58.3613C161.872 59.1558 160.131 59.553 158.175 59.553C156.005 59.553 154.019 59.003 152.216 57.9029C150.413 56.7723 148.977 55.2139 147.908 53.2277C146.869 51.211 146.349 48.9345 146.349 46.3982ZM167.021 46.4899C167.021 44.7481 166.655 43.2356 165.921 41.9522C165.218 40.6688 164.286 39.691 163.125 39.0187C161.964 38.3464 160.711 38.0103 159.367 38.0103C158.022 38.0103 156.769 38.3464 155.608 39.0187C154.447 39.6604 153.5 40.6229 152.766 41.9063C152.064 43.1592 151.712 44.6565 151.712 46.3982C151.712 48.14 152.064 49.6678 152.766 50.9818C153.5 52.2957 154.447 53.3041 155.608 54.0069C156.8 54.6792 158.053 55.0153 159.367 55.0153C160.711 55.0153 161.964 54.6792 163.125 54.0069C164.286 53.3347 165.218 52.3568 165.921 51.0734C166.655 49.7595 167.021 48.2316 167.021 46.4899ZM185.252 38.1478V52.1277C185.252 53.0749 185.465 53.7625 185.893 54.1903C186.352 54.5875 187.116 54.7861 188.185 54.7861H191.394V59.1405H187.268C184.915 59.1405 183.113 58.5905 181.86 57.4904C180.607 56.3904 179.98 54.6028 179.98 52.1277V38.1478H177.001V33.8851H179.98V27.6056H185.252V33.8851H191.394V38.1478H185.252ZM219.081 33.8851V59.1405H213.856V56.1612C213.031 57.2001 211.946 58.0252 210.602 58.6363C209.288 59.2169 207.882 59.5072 206.385 59.5072C204.399 59.5072 202.611 59.0947 201.022 58.2696C199.464 57.4446 198.226 56.2223 197.31 54.6028C196.423 52.9833 195.98 51.0276 195.98 48.7358V33.8851H201.16V47.9566C201.16 50.2178 201.725 51.9596 202.856 53.1819C203.986 54.3736 205.529 54.9695 207.485 54.9695C209.441 54.9695 210.984 54.3736 212.114 53.1819C213.276 51.9596 213.856 50.2178 213.856 47.9566V33.8851H219.081ZM235.143 59.553C233.157 59.553 231.369 59.2016 229.78 58.4988C228.222 57.7654 226.984 56.7876 226.067 55.5653C225.151 54.3125 224.662 52.9221 224.601 51.3943H230.009C230.101 52.4638 230.605 53.3652 231.522 54.0986C232.469 54.8014 233.646 55.1528 235.051 55.1528C236.518 55.1528 237.649 54.8778 238.443 54.3278C239.268 53.7472 239.681 53.0138 239.681 52.1277C239.681 51.1804 239.222 50.4776 238.306 50.0192C237.419 49.5609 235.998 49.0567 234.043 48.5067C232.148 47.9872 230.605 47.483 229.413 46.9941C228.222 46.5052 227.183 45.7565 226.297 44.7481C225.441 43.7398 225.013 42.4105 225.013 40.7604C225.013 39.4159 225.41 38.1937 226.205 37.0936C226.999 35.963 228.13 35.0768 229.597 34.4351C231.094 33.7934 232.805 33.4726 234.73 33.4726C237.603 33.4726 239.91 34.206 241.652 35.6727C243.424 37.1089 244.371 39.0798 244.493 41.5855H239.268C239.176 40.4549 238.718 39.5534 237.893 38.8812C237.068 38.2089 235.953 37.8728 234.547 37.8728C233.172 37.8728 232.118 38.1325 231.384 38.652C230.651 39.1715 230.284 39.859 230.284 40.7146C230.284 41.3869 230.529 41.9522 231.018 42.4105C231.507 42.8689 232.102 43.2356 232.805 43.5106C233.508 43.755 234.547 44.0759 235.922 44.4731C237.755 44.962 239.253 45.4662 240.414 45.9857C241.606 46.4746 242.629 47.208 243.485 48.1858C244.341 49.1636 244.784 50.4623 244.814 52.0818C244.814 53.518 244.417 54.8014 243.622 55.932C242.828 57.0626 241.697 57.9488 240.231 58.5905C238.794 59.2322 237.099 59.553 235.143 59.553ZM252.569 59.4614C251.621 59.4614 250.827 59.1405 250.185 58.4988C249.543 57.8571 249.223 57.0626 249.223 56.1154C249.223 55.1681 249.543 54.3736 250.185 53.7319C250.827 53.0902 251.621 52.7694 252.569 52.7694C253.485 52.7694 254.265 53.0902 254.906 53.7319C255.548 54.3736 255.869 55.1681 255.869 56.1154C255.869 57.0626 255.548 57.8571 254.906 58.4988C254.265 59.1405 253.485 59.4614 252.569 59.4614ZM252.569 40.2104C251.621 40.2104 250.827 39.8896 250.185 39.2479C249.543 38.6062 249.223 37.8117 249.223 36.8644C249.223 35.9172 249.543 35.1227 250.185 34.481C250.827 33.8393 251.621 33.5184 252.569 33.5184C253.485 33.5184 254.265 33.8393 254.906 34.481C255.548 35.1227 255.869 35.9172 255.869 36.8644C255.869 37.8117 255.548 38.6062 254.906 39.2479C254.265 39.8896 253.485 40.2104 252.569 40.2104Z" fill="white"/>
<path d="M363.626 27.2848V59.1405H358.4V27.2848H363.626ZM368.744 46.3982C368.744 43.862 369.264 41.616 370.303 39.6604C371.372 37.7047 372.808 36.1922 374.611 35.1227C376.445 34.0226 378.477 33.4726 380.707 33.4726C382.357 33.4726 383.977 33.8393 385.566 34.5726C387.185 35.2755 388.469 36.2227 389.416 37.4145V25.2222H394.687V59.1405H389.416V55.3362C388.561 56.5584 387.369 57.5668 385.841 58.3613C384.344 59.1558 382.617 59.553 380.662 59.553C378.461 59.553 376.445 59.003 374.611 57.9029C372.808 56.7723 371.372 55.2139 370.303 53.2277C369.264 51.211 368.744 48.9345 368.744 46.3982ZM389.416 46.4899C389.416 44.7481 389.049 43.2356 388.316 41.9522C387.613 40.6688 386.681 39.691 385.52 39.0187C384.359 38.3464 383.106 38.0103 381.762 38.0103C380.417 38.0103 379.164 38.3464 378.003 39.0187C376.842 39.6604 375.895 40.6229 375.161 41.9063C374.458 43.1592 374.107 44.6565 374.107 46.3982C374.107 48.14 374.458 49.6678 375.161 50.9818C375.895 52.2957 376.842 53.3041 378.003 54.0069C379.195 54.6792 380.448 55.0153 381.762 55.0153C383.106 55.0153 384.359 54.6792 385.52 54.0069C386.681 53.3347 387.613 52.3568 388.316 51.0734C389.049 49.7595 389.416 48.2316 389.416 46.4899ZM406.776 25.2222V59.1405H401.55V25.2222H406.776ZM436.783 45.894C436.783 46.8413 436.722 47.6969 436.6 48.4608H417.303C417.456 50.4776 418.204 52.0971 419.549 53.3194C420.893 54.5417 422.543 55.1528 424.499 55.1528C427.31 55.1528 429.296 53.9764 430.458 51.6235H436.095C435.331 53.9458 433.941 55.8556 431.924 57.3529C429.938 58.8197 427.463 59.553 424.499 59.553C422.085 59.553 419.915 59.0183 417.99 57.9488C416.096 56.8487 414.598 55.3209 413.498 53.3652C412.429 51.379 411.894 49.0872 411.894 46.4899C411.894 43.8925 412.414 41.616 413.453 39.6604C414.522 37.6742 416.004 36.1463 417.899 35.0768C419.824 34.0073 422.024 33.4726 424.499 33.4726C426.882 33.4726 429.006 33.9921 430.87 35.031C432.734 36.0699 434.186 37.5367 435.224 39.4312C436.263 41.2952 436.783 43.4495 436.783 45.894ZM431.328 44.2439C431.298 42.3189 430.61 40.7757 429.266 39.6146C427.921 38.4534 426.256 37.8728 424.27 37.8728C422.467 37.8728 420.924 38.4534 419.64 39.6146C418.357 40.7452 417.593 42.2883 417.349 44.2439H431.328Z" fill="black"/>
</svg>
