<svg width="522" height="84" viewBox="0 0 522 84" fill="none" xmlns="http://www.w3.org/2000/svg">
<rect x="2.05701" y="1.53452" width="517.886" height="80.9204" stroke="black" stroke-width="3"/>
<rect x="273.987" y="3.03445" width="244.456" height="77.9204" fill="#DCD093"/>
<rect x="3.55701" y="3.03452" width="270.43" height="77.9204" fill="#1E3917"/>
<path d="M37.7961 42.2548C39.5073 42.5604 40.9588 43.4618 42.1505 44.9591C43.3422 46.4564 43.9381 48.1523 43.9381 50.0468C43.9381 51.6663 43.5103 53.1331 42.6547 54.447C41.8296 55.7304 40.6226 56.7541 39.0337 57.518C37.4447 58.2514 35.596 58.6181 33.4876 58.6181H20.7453V26.7624H32.8917C35.0613 26.7624 36.9252 27.129 38.4836 27.8624C40.042 28.5958 41.2185 29.5889 42.013 30.8417C42.8075 32.064 43.2047 33.4391 43.2047 34.9669C43.2047 36.8004 42.7158 38.3282 41.738 39.5505C40.7601 40.7728 39.4462 41.6742 37.7961 42.2548ZM25.9705 40.1463H32.4333C34.1445 40.1463 35.4738 39.7644 36.421 39.0005C37.3989 38.206 37.8878 37.0754 37.8878 35.6086C37.8878 34.1724 37.3989 33.0571 36.421 32.2626C35.4738 31.4376 34.1445 31.0251 32.4333 31.0251H25.9705V40.1463ZM33.0292 54.3554C34.8015 54.3554 36.1919 53.9276 37.2002 53.072C38.2086 52.2164 38.7128 51.0246 38.7128 49.4968C38.7128 47.9384 38.1781 46.7008 37.1086 45.7841C36.0391 44.8674 34.6182 44.4091 32.8459 44.4091H25.9705V54.3554H33.0292ZM52.2748 30.0167C51.3275 30.0167 50.533 29.6958 49.8913 29.0541C49.2496 28.4124 48.9288 27.618 48.9288 26.6707C48.9288 25.7234 49.2496 24.9289 49.8913 24.2872C50.533 23.6455 51.3275 23.3247 52.2748 23.3247C53.1915 23.3247 53.9707 23.6455 54.6124 24.2872C55.2541 24.9289 55.5749 25.7234 55.5749 26.6707C55.5749 27.618 55.2541 28.4124 54.6124 29.0541C53.9707 29.6958 53.1915 30.0167 52.2748 30.0167ZM54.8416 33.3627V58.6181H49.6163V33.3627H54.8416ZM74.4441 32.9502C76.4303 32.9502 78.2027 33.3627 79.7611 34.1877C81.35 35.0128 82.5876 36.235 83.4737 37.8546C84.3599 39.4741 84.803 41.4297 84.803 43.7215V58.6181H79.6236V44.5007C79.6236 42.2395 79.0582 40.513 77.9276 39.3213C76.797 38.099 75.2539 37.4879 73.2982 37.4879C71.3426 37.4879 69.7842 38.099 68.623 39.3213C67.4924 40.513 66.9271 42.2395 66.9271 44.5007V58.6181H61.7019V33.3627H66.9271V36.2503C67.7827 35.2114 68.8675 34.4016 70.1814 33.821C71.5259 33.2405 72.9468 32.9502 74.4441 32.9502ZM113.871 58.9389C111.732 58.9389 109.807 58.5722 108.096 57.8389C106.384 57.0749 105.04 56.0054 104.062 54.6304C103.084 53.2553 102.595 51.6511 102.595 49.8176H108.187C108.31 51.1927 108.844 52.3233 109.792 53.2095C110.769 54.0956 112.129 54.5387 113.871 54.5387C115.674 54.5387 117.079 54.1109 118.088 53.2553C119.096 52.3692 119.6 51.2385 119.6 49.8635C119.6 48.794 119.28 47.9231 118.638 47.2509C118.027 46.5786 117.247 46.0591 116.3 45.6924C115.384 45.3258 114.1 44.9285 112.45 44.5007C110.372 43.9507 108.676 43.4007 107.362 42.8506C106.079 42.2701 104.979 41.3839 104.062 40.1922C103.145 39.0005 102.687 37.4115 102.687 35.4253C102.687 33.5919 103.145 31.9876 104.062 30.6126C104.979 29.2375 106.262 28.1833 107.912 27.4499C109.562 26.7165 111.472 26.3498 113.642 26.3498C116.728 26.3498 119.249 27.129 121.205 28.6875C123.191 30.2153 124.291 32.3237 124.505 35.0128H118.73C118.638 33.8516 118.088 32.8585 117.079 32.0335C116.071 31.2084 114.742 30.7959 113.092 30.7959C111.594 30.7959 110.372 31.1779 109.425 31.9418C108.478 32.7057 108.004 33.8058 108.004 35.2419C108.004 36.2198 108.294 37.0295 108.875 37.6712C109.486 38.2824 110.25 38.7713 111.167 39.138C112.083 39.5046 113.336 39.9019 114.925 40.3297C117.034 40.9103 118.745 41.4909 120.059 42.0714C121.403 42.652 122.534 43.5535 123.451 44.7757C124.398 45.9675 124.871 47.5717 124.871 49.5885C124.871 51.208 124.428 52.7358 123.542 54.172C122.687 55.6082 121.419 56.7694 119.738 57.6555C118.088 58.5111 116.132 58.9389 113.871 58.9389ZM137.133 37.6254V51.6052C137.133 52.5525 137.347 53.24 137.775 53.6678C138.233 54.0651 138.997 54.2637 140.067 54.2637H143.275V58.6181H139.15C136.797 58.6181 134.994 58.068 133.741 56.968C132.489 55.8679 131.862 54.0804 131.862 51.6052V37.6254H128.883V33.3627H131.862V27.0832H137.133V33.3627H143.275V37.6254H137.133ZM146.349 45.8758C146.349 43.3396 146.869 41.0936 147.908 39.138C148.977 37.1823 150.413 35.6697 152.216 34.6002C154.05 33.5002 156.067 32.9502 158.267 32.9502C160.253 32.9502 161.979 33.3474 163.446 34.1419C164.943 34.9058 166.135 35.8684 167.021 37.0295V33.3627H172.292V58.6181H167.021V54.8596C166.135 56.0513 164.928 57.0444 163.4 57.8389C161.872 58.6334 160.131 59.0306 158.175 59.0306C156.005 59.0306 154.019 58.4806 152.216 57.3805C150.413 56.2499 148.977 54.6915 147.908 52.7053C146.869 50.6885 146.349 48.412 146.349 45.8758ZM167.021 45.9675C167.021 44.2257 166.655 42.7131 165.921 41.4297C165.218 40.1463 164.286 39.1685 163.125 38.4963C161.964 37.824 160.711 37.4879 159.367 37.4879C158.022 37.4879 156.769 37.824 155.608 38.4963C154.447 39.138 153.5 40.1005 152.766 41.3839C152.064 42.6367 151.712 44.134 151.712 45.8758C151.712 47.6175 152.064 49.1454 152.766 50.4593C153.5 51.7733 154.447 52.7817 155.608 53.4845C156.8 54.1567 158.053 54.4929 159.367 54.4929C160.711 54.4929 161.964 54.1567 163.125 53.4845C164.286 52.8122 165.218 51.8344 165.921 50.551C166.655 49.2371 167.021 47.7092 167.021 45.9675ZM185.252 37.6254V51.6052C185.252 52.5525 185.465 53.24 185.893 53.6678C186.352 54.0651 187.116 54.2637 188.185 54.2637H191.394V58.6181H187.268C184.915 58.6181 183.113 58.068 181.86 56.968C180.607 55.8679 179.98 54.0804 179.98 51.6052V37.6254H177.001V33.3627H179.98V27.0832H185.252V33.3627H191.394V37.6254H185.252ZM219.081 33.3627V58.6181H213.856V55.6388C213.031 56.6777 211.946 57.5027 210.602 58.1139C209.288 58.6945 207.882 58.9848 206.385 58.9848C204.399 58.9848 202.611 58.5722 201.022 57.7472C199.464 56.9222 198.226 55.6999 197.31 54.0804C196.423 52.4608 195.98 50.5052 195.98 48.2134V33.3627H201.16V47.4342C201.16 49.6954 201.725 51.4372 202.856 52.6595C203.986 53.8512 205.529 54.447 207.485 54.447C209.441 54.447 210.984 53.8512 212.114 52.6595C213.276 51.4372 213.856 49.6954 213.856 47.4342V33.3627H219.081ZM235.143 59.0306C233.157 59.0306 231.369 58.6792 229.78 57.9764C228.222 57.243 226.984 56.2652 226.067 55.0429C225.151 53.7901 224.662 52.3997 224.601 50.8719H230.009C230.101 51.9414 230.605 52.8428 231.522 53.5762C232.469 54.279 233.646 54.6304 235.051 54.6304C236.518 54.6304 237.649 54.3554 238.443 53.8053C239.268 53.2248 239.681 52.4914 239.681 51.6052C239.681 50.658 239.222 49.9552 238.306 49.4968C237.419 49.0384 235.998 48.5343 234.043 47.9842C232.148 47.4648 230.605 46.9606 229.413 46.4717C228.222 45.9827 227.183 45.2341 226.297 44.2257C225.441 43.2173 225.013 41.8881 225.013 40.238C225.013 38.8935 225.41 37.6712 226.205 36.5712C226.999 35.4406 228.13 34.5544 229.597 33.9127C231.094 33.271 232.805 32.9502 234.73 32.9502C237.603 32.9502 239.91 33.6835 241.652 35.1503C243.424 36.5865 244.371 38.5574 244.493 41.0631H239.268C239.176 39.9324 238.718 39.031 237.893 38.3588C237.068 37.6865 235.953 37.3504 234.547 37.3504C233.172 37.3504 232.118 37.6101 231.384 38.1296C230.651 38.6491 230.284 39.3366 230.284 40.1922C230.284 40.8644 230.529 41.4297 231.018 41.8881C231.507 42.3465 232.102 42.7131 232.805 42.9881C233.508 43.2326 234.547 43.5535 235.922 43.9507C237.755 44.4396 239.253 44.9438 240.414 45.4633C241.606 45.9522 242.629 46.6856 243.485 47.6634C244.341 48.6412 244.784 49.9399 244.814 51.5594C244.814 52.9956 244.417 54.279 243.622 55.4096C242.828 56.5402 241.697 57.4263 240.231 58.068C238.794 58.7097 237.099 59.0306 235.143 59.0306ZM252.569 58.9389C251.621 58.9389 250.827 58.6181 250.185 57.9764C249.543 57.3347 249.223 56.5402 249.223 55.5929C249.223 54.6457 249.543 53.8512 250.185 53.2095C250.827 52.5678 251.621 52.2469 252.569 52.2469C253.485 52.2469 254.265 52.5678 254.906 53.2095C255.548 53.8512 255.869 54.6457 255.869 55.5929C255.869 56.5402 255.548 57.3347 254.906 57.9764C254.265 58.6181 253.485 58.9389 252.569 58.9389ZM252.569 39.688C251.621 39.688 250.827 39.3671 250.185 38.7254C249.543 38.0837 249.223 37.2893 249.223 36.342C249.223 35.3947 249.543 34.6002 250.185 33.9585C250.827 33.3168 251.621 32.996 252.569 32.996C253.485 32.996 254.265 33.3168 254.906 33.9585C255.548 34.6002 255.869 35.3947 255.869 36.342C255.869 37.2893 255.548 38.0837 254.906 38.7254C254.265 39.3671 253.485 39.688 252.569 39.688Z" fill="white"/>
<path d="M327.645 58.9389C325.506 58.9389 323.581 58.5722 321.87 57.8389C320.158 57.0749 318.814 56.0054 317.836 54.6304C316.858 53.2553 316.369 51.6511 316.369 49.8176H321.961C322.083 51.1927 322.618 52.3233 323.565 53.2095C324.543 54.0956 325.903 54.5387 327.645 54.5387C329.448 54.5387 330.853 54.1109 331.862 53.2553C332.87 52.3692 333.374 51.2385 333.374 49.8635C333.374 48.794 333.053 47.9231 332.412 47.2509C331.801 46.5786 331.021 46.0591 330.074 45.6924C329.157 45.3258 327.874 44.9285 326.224 44.5007C324.146 43.9507 322.45 43.4007 321.136 42.8506C319.853 42.2701 318.753 41.3839 317.836 40.1922C316.919 39.0005 316.461 37.4115 316.461 35.4253C316.461 33.5919 316.919 31.9876 317.836 30.6126C318.753 29.2375 320.036 28.1833 321.686 27.4499C323.336 26.7165 325.246 26.3498 327.416 26.3498C330.502 26.3498 333.023 27.129 334.979 28.6875C336.965 30.2153 338.065 32.3237 338.279 35.0128H332.503C332.412 33.8516 331.862 32.8585 330.853 32.0335C329.845 31.2084 328.516 30.7959 326.866 30.7959C325.368 30.7959 324.146 31.1779 323.199 31.9418C322.252 32.7057 321.778 33.8058 321.778 35.2419C321.778 36.2198 322.068 37.0295 322.649 37.6712C323.26 38.2824 324.024 38.7713 324.941 39.138C325.857 39.5046 327.11 39.9019 328.699 40.3297C330.807 40.9103 332.519 41.4909 333.833 42.0714C335.177 42.652 336.308 43.5535 337.224 44.7757C338.172 45.9675 338.645 47.5717 338.645 49.5885C338.645 51.208 338.202 52.7358 337.316 54.172C336.461 55.6082 335.192 56.7694 333.512 57.6555C331.862 58.5111 329.906 58.9389 327.645 58.9389ZM355.766 59.0306C353.382 59.0306 351.228 58.4958 349.303 57.4263C347.378 56.3263 345.865 54.7984 344.765 52.8428C343.665 50.8566 343.115 48.5648 343.115 45.9675C343.115 43.4007 343.68 41.1242 344.811 39.138C345.942 37.1518 347.485 35.6239 349.44 34.5544C351.396 33.4849 353.581 32.9502 355.995 32.9502C358.409 32.9502 360.594 33.4849 362.549 34.5544C364.505 35.6239 366.048 37.1518 367.179 39.138C368.309 41.1242 368.875 43.4007 368.875 45.9675C368.875 48.5343 368.294 50.8108 367.133 52.797C365.972 54.7832 364.383 56.3263 362.366 57.4263C360.38 58.4958 358.18 59.0306 355.766 59.0306ZM355.766 54.4929C357.11 54.4929 358.363 54.172 359.524 53.5303C360.716 52.8886 361.678 51.9261 362.412 50.6427C363.145 49.3593 363.512 47.8009 363.512 45.9675C363.512 44.134 363.16 42.5909 362.458 41.3381C361.755 40.0547 360.823 39.0921 359.662 38.4504C358.501 37.8087 357.248 37.4879 355.903 37.4879C354.559 37.4879 353.306 37.8087 352.145 38.4504C351.014 39.0921 350.113 40.0547 349.44 41.3381C348.768 42.5909 348.432 44.134 348.432 45.9675C348.432 48.687 349.119 50.7955 350.495 52.2928C351.9 53.7595 353.657 54.4929 355.766 54.4929ZM379.265 37.0295C380.029 35.7461 381.038 34.753 382.29 34.0502C383.574 33.3168 385.086 32.9502 386.828 32.9502V38.3588H385.499C383.452 38.3588 381.893 38.8782 380.824 39.9172C379.785 40.9561 379.265 42.759 379.265 45.3258V58.6181H374.04V33.3627H379.265V37.0295ZM397.727 37.6254V51.6052C397.727 52.5525 397.941 53.24 398.369 53.6678C398.827 54.0651 399.591 54.2637 400.661 54.2637H403.869V58.6181H399.744C397.391 58.6181 395.588 58.068 394.336 56.968C393.083 55.8679 392.456 54.0804 392.456 51.6052V37.6254H389.477V33.3627H392.456V27.0832H397.727V33.3627H403.869V37.6254H397.727ZM411.344 30.0167C410.396 30.0167 409.602 29.6958 408.96 29.0541C408.319 28.4124 407.998 27.618 407.998 26.6707C407.998 25.7234 408.319 24.9289 408.96 24.2872C409.602 23.6455 410.396 23.3247 411.344 23.3247C412.26 23.3247 413.04 23.6455 413.681 24.2872C414.323 24.9289 414.644 25.7234 414.644 26.6707C414.644 27.618 414.323 28.4124 413.681 29.0541C413.04 29.6958 412.26 30.0167 411.344 30.0167ZM413.911 33.3627V58.6181H408.685V33.3627H413.911ZM433.513 32.9502C435.499 32.9502 437.272 33.3627 438.83 34.1877C440.419 35.0128 441.657 36.235 442.543 37.8546C443.429 39.4741 443.872 41.4297 443.872 43.7215V58.6181H438.693V44.5007C438.693 42.2395 438.127 40.513 436.997 39.3213C435.866 38.099 434.323 37.4879 432.367 37.4879C430.412 37.4879 428.853 38.099 427.692 39.3213C426.561 40.513 425.996 42.2395 425.996 44.5007V58.6181H420.771V33.3627H425.996V36.2503C426.852 35.2114 427.936 34.4016 429.25 33.821C430.595 33.2405 432.016 32.9502 433.513 32.9502ZM460.713 32.9502C462.668 32.9502 464.395 33.3474 465.892 34.1419C467.42 34.9058 468.612 35.8684 469.467 37.0295V33.3627H474.738V59.0306C474.738 61.3529 474.249 63.4155 473.272 65.2184C472.294 67.0518 470.873 68.488 469.009 69.5269C467.175 70.5659 464.975 71.0853 462.409 71.0853C458.986 71.0853 456.144 70.2756 453.883 68.6561C451.622 67.0671 450.338 64.8975 450.033 62.1474H455.212C455.61 63.4614 456.45 64.5156 457.733 65.3101C459.047 66.1351 460.606 66.5476 462.409 66.5476C464.517 66.5476 466.213 65.9059 467.496 64.6225C468.81 63.3391 469.467 61.4752 469.467 59.0306V54.8137C468.581 56.0054 467.374 57.0138 465.846 57.8389C464.349 58.6334 462.638 59.0306 460.713 59.0306C458.512 59.0306 456.496 58.4806 454.662 57.3805C452.859 56.2499 451.423 54.6915 450.354 52.7053C449.315 50.6885 448.795 48.412 448.795 45.8758C448.795 43.3396 449.315 41.0936 450.354 39.138C451.423 37.1823 452.859 35.6697 454.662 34.6002C456.496 33.5002 458.512 32.9502 460.713 32.9502ZM469.467 45.9675C469.467 44.2257 469.1 42.7131 468.367 41.4297C467.664 40.1463 466.732 39.1685 465.571 38.4963C464.41 37.824 463.157 37.4879 461.813 37.4879C460.468 37.4879 459.215 37.824 458.054 38.4963C456.893 39.138 455.946 40.1005 455.212 41.3839C454.51 42.6367 454.158 44.134 454.158 45.8758C454.158 47.6175 454.51 49.1454 455.212 50.4593C455.946 51.7733 456.893 52.7817 458.054 53.4845C459.246 54.1567 460.499 54.4929 461.813 54.4929C463.157 54.4929 464.41 54.1567 465.571 53.4845C466.732 52.8122 467.664 51.8344 468.367 50.551C469.1 49.2371 469.467 47.7092 469.467 45.9675Z" fill="black"/>
</svg>
