<svg width="522" height="85" viewBox="0 0 522 85" fill="none" xmlns="http://www.w3.org/2000/svg">
<rect x="2.05701" y="2.01193" width="517.886" height="80.9204" stroke="black" stroke-width="3"/>
<rect x="273.987" y="3.51193" width="244.456" height="77.9204" fill="#DCA093"/>
<rect x="3.55701" y="3.51193" width="270.43" height="77.9204" fill="#1E3917"/>
<path d="M37.7961 42.7322C39.5073 43.0377 40.9588 43.9392 42.1505 45.4365C43.3422 46.9338 43.9381 48.6297 43.9381 50.5242C43.9381 52.1437 43.5103 53.6105 42.6547 54.9244C41.8296 56.2078 40.6226 57.2315 39.0337 57.9954C37.4447 58.7288 35.596 59.0955 33.4876 59.0955H20.7453V27.2398H32.8917C35.0613 27.2398 36.9252 27.6064 38.4836 28.3398C40.042 29.0732 41.2185 30.0663 42.013 31.3191C42.8075 32.5414 43.2047 33.9165 43.2047 35.4443C43.2047 37.2777 42.7158 38.8056 41.738 40.0279C40.7601 41.2502 39.4462 42.1516 37.7961 42.7322ZM25.9705 40.6237H32.4333C34.1445 40.6237 35.4738 40.2418 36.421 39.4778C37.3989 38.6834 37.8878 37.5527 37.8878 36.086C37.8878 34.6498 37.3989 33.5345 36.421 32.74C35.4738 31.915 34.1445 31.5025 32.4333 31.5025H25.9705V40.6237ZM33.0292 54.8328C34.8015 54.8328 36.1919 54.405 37.2002 53.5494C38.2086 52.6938 38.7128 51.502 38.7128 49.9742C38.7128 48.4158 38.1781 47.1782 37.1086 46.2615C36.0391 45.3448 34.6182 44.8864 32.8459 44.8864H25.9705V54.8328H33.0292ZM52.2748 30.4941C51.3275 30.4941 50.533 30.1732 49.8913 29.5315C49.2496 28.8898 48.9288 28.0953 48.9288 27.1481C48.9288 26.2008 49.2496 25.4063 49.8913 24.7646C50.533 24.1229 51.3275 23.8021 52.2748 23.8021C53.1915 23.8021 53.9707 24.1229 54.6124 24.7646C55.2541 25.4063 55.5749 26.2008 55.5749 27.1481C55.5749 28.0953 55.2541 28.8898 54.6124 29.5315C53.9707 30.1732 53.1915 30.4941 52.2748 30.4941ZM54.8416 33.8401V59.0955H49.6163V33.8401H54.8416ZM74.4441 33.4276C76.4303 33.4276 78.2027 33.8401 79.7611 34.6651C81.35 35.4901 82.5876 36.7124 83.4737 38.332C84.3599 39.9515 84.803 41.9071 84.803 44.1989V59.0955H79.6236V44.9781C79.6236 42.7169 79.0582 40.9904 77.9276 39.7987C76.797 38.5764 75.2539 37.9653 73.2982 37.9653C71.3426 37.9653 69.7842 38.5764 68.623 39.7987C67.4924 40.9904 66.9271 42.7169 66.9271 44.9781V59.0955H61.7019V33.8401H66.9271V36.7277C67.7827 35.6888 68.8675 34.879 70.1814 34.2984C71.5259 33.7178 72.9468 33.4276 74.4441 33.4276ZM113.871 59.4163C111.732 59.4163 109.807 59.0496 108.096 58.3163C106.384 57.5523 105.04 56.4828 104.062 55.1078C103.084 53.7327 102.595 52.1285 102.595 50.295H108.187C108.31 51.6701 108.844 52.8007 109.792 53.6869C110.769 54.573 112.129 55.0161 113.871 55.0161C115.674 55.0161 117.079 54.5883 118.088 53.7327C119.096 52.8465 119.6 51.7159 119.6 50.3409C119.6 49.2714 119.28 48.4005 118.638 47.7282C118.027 47.056 117.247 46.5365 116.3 46.1698C115.384 45.8031 114.1 45.4059 112.45 44.9781C110.372 44.4281 108.676 43.8781 107.362 43.328C106.079 42.7474 104.979 41.8613 104.062 40.6696C103.145 39.4778 102.687 37.8889 102.687 35.9027C102.687 34.0692 103.145 32.465 104.062 31.0899C104.979 29.7149 106.262 28.6607 107.912 27.9273C109.562 27.1939 111.472 26.8272 113.642 26.8272C116.728 26.8272 119.249 27.6064 121.205 29.1648C123.191 30.6927 124.291 32.8011 124.505 35.4901H118.73C118.638 34.329 118.088 33.3359 117.079 32.5108C116.071 31.6858 114.742 31.2733 113.092 31.2733C111.594 31.2733 110.372 31.6552 109.425 32.4192C108.478 33.1831 108.004 34.2831 108.004 35.7193C108.004 36.6972 108.294 37.5069 108.875 38.1486C109.486 38.7598 110.25 39.2487 111.167 39.6154C112.083 39.982 113.336 40.3793 114.925 40.8071C117.034 41.3877 118.745 41.9682 120.059 42.5488C121.403 43.1294 122.534 44.0308 123.451 45.2531C124.398 46.4448 124.871 48.0491 124.871 50.0659C124.871 51.6854 124.428 53.2132 123.542 54.6494C122.687 56.0856 121.419 57.2468 119.738 58.1329C118.088 58.9885 116.132 59.4163 113.871 59.4163ZM137.133 38.1028V52.0826C137.133 53.0299 137.347 53.7174 137.775 54.1452C138.233 54.5425 138.997 54.7411 140.067 54.7411H143.275V59.0955H139.15C136.797 59.0955 134.994 58.5454 133.741 57.4454C132.489 56.3453 131.862 54.5577 131.862 52.0826V38.1028H128.883V33.8401H131.862V27.5606H137.133V33.8401H143.275V38.1028H137.133ZM146.349 46.3532C146.349 43.8169 146.869 41.571 147.908 39.6154C148.977 37.6597 150.413 36.1471 152.216 35.0776C154.05 33.9776 156.067 33.4276 158.267 33.4276C160.253 33.4276 161.979 33.8248 163.446 34.6193C164.943 35.3832 166.135 36.3457 167.021 37.5069V33.8401H172.292V59.0955H167.021V55.3369C166.135 56.5287 164.928 57.5218 163.4 58.3163C161.872 59.1107 160.131 59.508 158.175 59.508C156.005 59.508 154.019 58.958 152.216 57.8579C150.413 56.7273 148.977 55.1689 147.908 53.1827C146.869 51.1659 146.349 48.8894 146.349 46.3532ZM167.021 46.4448C167.021 44.7031 166.655 43.1905 165.921 41.9071C165.218 40.6237 164.286 39.6459 163.125 38.9737C161.964 38.3014 160.711 37.9653 159.367 37.9653C158.022 37.9653 156.769 38.3014 155.608 38.9737C154.447 39.6154 153.5 40.5779 152.766 41.8613C152.064 43.1141 151.712 44.6114 151.712 46.3532C151.712 48.0949 152.064 49.6228 152.766 50.9367C153.5 52.2507 154.447 53.2591 155.608 53.9619C156.8 54.6341 158.053 54.9703 159.367 54.9703C160.711 54.9703 161.964 54.6341 163.125 53.9619C164.286 53.2896 165.218 52.3118 165.921 51.0284C166.655 49.7144 167.021 48.1866 167.021 46.4448ZM185.252 38.1028V52.0826C185.252 53.0299 185.465 53.7174 185.893 54.1452C186.352 54.5425 187.116 54.7411 188.185 54.7411H191.394V59.0955H187.268C184.915 59.0955 183.113 58.5454 181.86 57.4454C180.607 56.3453 179.98 54.5577 179.98 52.0826V38.1028H177.001V33.8401H179.98V27.5606H185.252V33.8401H191.394V38.1028H185.252ZM219.081 33.8401V59.0955H213.856V56.1161C213.031 57.1551 211.946 57.9801 210.602 58.5913C209.288 59.1719 207.882 59.4621 206.385 59.4621C204.399 59.4621 202.611 59.0496 201.022 58.2246C199.464 57.3995 198.226 56.1773 197.31 54.5577C196.423 52.9382 195.98 50.9826 195.98 48.6908V33.8401H201.16V47.9116C201.16 50.1728 201.725 51.9146 202.856 53.1368C203.986 54.3286 205.529 54.9244 207.485 54.9244C209.441 54.9244 210.984 54.3286 212.114 53.1368C213.276 51.9146 213.856 50.1728 213.856 47.9116V33.8401H219.081ZM235.143 59.508C233.157 59.508 231.369 59.1566 229.78 58.4538C228.222 57.7204 226.984 56.7426 226.067 55.5203C225.151 54.2674 224.662 52.8771 224.601 51.3493H230.009C230.101 52.4187 230.605 53.3202 231.522 54.0535C232.469 54.7564 233.646 55.1078 235.051 55.1078C236.518 55.1078 237.649 54.8328 238.443 54.2827C239.268 53.7021 239.681 52.9688 239.681 52.0826C239.681 51.1354 239.222 50.4325 238.306 49.9742C237.419 49.5158 235.998 49.0116 234.043 48.4616C232.148 47.9421 230.605 47.438 229.413 46.949C228.222 46.4601 227.183 45.7115 226.297 44.7031C225.441 43.6947 225.013 42.3655 225.013 40.7154C225.013 39.3709 225.41 38.1486 226.205 37.0486C226.999 35.9179 228.13 35.0318 229.597 34.3901C231.094 33.7484 232.805 33.4276 234.73 33.4276C237.603 33.4276 239.91 34.1609 241.652 35.6277C243.424 37.0638 244.371 39.0348 244.493 41.5404H239.268C239.176 40.4098 238.718 39.5084 237.893 38.8361C237.068 38.1639 235.953 37.8278 234.547 37.8278C233.172 37.8278 232.118 38.0875 231.384 38.607C230.651 39.1264 230.284 39.814 230.284 40.6696C230.284 41.3418 230.529 41.9071 231.018 42.3655C231.507 42.8238 232.102 43.1905 232.805 43.4655C233.508 43.71 234.547 44.0308 235.922 44.4281C237.755 44.917 239.253 45.4212 240.414 45.9407C241.606 46.4296 242.629 47.1629 243.485 48.1408C244.341 49.1186 244.784 50.4173 244.814 52.0368C244.814 53.473 244.417 54.7564 243.622 55.887C242.828 57.0176 241.697 57.9037 240.231 58.5454C238.794 59.1871 237.099 59.508 235.143 59.508ZM252.569 59.4163C251.621 59.4163 250.827 59.0955 250.185 58.4538C249.543 57.8121 249.223 57.0176 249.223 56.0703C249.223 55.123 249.543 54.3286 250.185 53.6869C250.827 53.0452 251.621 52.7243 252.569 52.7243C253.485 52.7243 254.265 53.0452 254.906 53.6869C255.548 54.3286 255.869 55.123 255.869 56.0703C255.869 57.0176 255.548 57.8121 254.906 58.4538C254.265 59.0955 253.485 59.4163 252.569 59.4163ZM252.569 40.1654C251.621 40.1654 250.827 39.8445 250.185 39.2028C249.543 38.5611 249.223 37.7666 249.223 36.8194C249.223 35.8721 249.543 35.0776 250.185 34.4359C250.827 33.7942 251.621 33.4734 252.569 33.4734C253.485 33.4734 254.265 33.7942 254.906 34.4359C255.548 35.0776 255.869 35.8721 255.869 36.8194C255.869 37.7666 255.548 38.5611 254.906 39.2028C254.265 39.8445 253.485 40.1654 252.569 40.1654Z" fill="white"/>
<path d="M319.063 30.3528V25.5859H328.596V59H323.325V30.3528H319.063ZM353.421 15.7312L340.954 67.0212H335.821L348.242 15.7312H353.421ZM359.227 33.8363C359.411 30.9945 360.496 28.7791 362.482 27.1901C364.499 25.6012 367.065 24.8067 370.182 24.8067C372.321 24.8067 374.17 25.1886 375.728 25.9526C377.287 26.7165 378.463 27.7554 379.258 29.0694C380.052 30.3833 380.449 31.8654 380.449 33.5154C380.449 35.41 379.945 37.0295 378.937 38.374C377.928 39.7185 376.721 40.6199 375.316 41.0783V41.2616C377.119 41.8117 378.524 42.8201 379.533 44.2868C380.541 45.723 381.045 47.5717 381.045 49.8329C381.045 51.6358 380.633 53.24 379.808 54.6456C378.983 56.0512 377.76 57.1666 376.141 57.9916C374.521 58.7861 372.581 59.1833 370.32 59.1833C367.019 59.1833 364.3 58.343 362.161 56.6624C360.052 54.9512 358.922 52.5066 358.769 49.3287H363.811C363.933 50.9482 364.56 52.2775 365.69 53.3164C366.821 54.3248 368.349 54.829 370.274 54.829C372.138 54.829 373.574 54.3248 374.582 53.3164C375.591 52.2775 376.095 50.9482 376.095 49.3287C376.095 47.1897 375.407 45.6771 374.032 44.791C372.688 43.8743 370.61 43.4159 367.799 43.4159H366.607V39.1074H367.845C370.32 39.0768 372.199 38.6643 373.482 37.8698C374.796 37.0753 375.453 35.8225 375.453 34.1113C375.453 32.6446 374.98 31.4834 374.032 30.6278C373.085 29.7416 371.741 29.2986 369.999 29.2986C368.288 29.2986 366.958 29.7416 366.011 30.6278C365.064 31.4834 364.499 32.5529 364.315 33.8363H359.227ZM417.875 27.1443V31.407H404.353V40.8033H414.895V45.066H404.353V59H399.128V27.1443H417.875ZM445.589 33.7446V59H440.364V56.0207C439.539 57.0596 438.454 57.8847 437.11 58.4958C435.796 59.0764 434.39 59.3667 432.893 59.3667C430.906 59.3667 429.119 58.9542 427.53 58.1291C425.972 57.3041 424.734 56.0818 423.817 54.4623C422.931 52.8428 422.488 50.8871 422.488 48.5953V33.7446H427.667V47.8161C427.667 50.0773 428.233 51.8191 429.363 53.0414C430.494 54.2331 432.037 54.829 433.993 54.829C435.948 54.829 437.492 54.2331 438.622 53.0414C439.783 51.8191 440.364 50.0773 440.364 47.8161V33.7446H445.589ZM457.709 25.0817V59H452.483V25.0817H457.709ZM469.794 25.0817V59H464.569V25.0817H469.794Z" fill="black"/>
</svg>
